HIERARCHY
ROOT Hips
{
	OFFSET -3.958830 18.904000 13.208200
	CHANNELS 6 Xposition Yposition Zposition Zrotation Yrotation Xrotation 
	JOINT LHipJoint
	{
		OFFSET 0.000000 0.000000 0.000000
		CHANNELS 3 Zrotation Yrotation Xrotation
		JOINT LeftUpLeg
		{
			OFFSET 1.800000 -1.400000 0.085000
			CHANNELS 3 Zrotation Yrotation Xrotation
			JOINT LeftLeg
			{
				OFFSET 2.215000 -6.000000 0.000000
				CHANNELS 3 Zrotation Yrotation Xrotation
				JOINT LeftFoot
				{
					OFFSET 2.500000 -6.900000 0.000000
					CHANNELS 3 Zrotation Yrotation Xrotation
					JOINT LeftToeBase
					{
						OFFSET 0.200000 -0.500000 1.950000
						CHANNELS 3 Zrotation Yrotation Xrotation
						End Site
						{
							OFFSET 0.000000 0.000000 0.000000
						}
					}
				}
			}
		}
	}
	JOINT RHipJoint
	{
		OFFSET 0.000000 0.000000 0.000000
		CHANNELS 3 Zrotation Yrotation Xrotation
		JOINT RightUpLeg
		{
			OFFSET -1.800000 -1.400000 0.085000
			CHANNELS 3 Zrotation Yrotation Xrotation
			JOINT RightLeg
			{
				OFFSET -2.215000 -6.000000 0.000000
				CHANNELS 3 Zrotation Yrotation Xrotation
				JOINT RightFoot
				{
					OFFSET -2.500000 -6.900000 0.000000
					CHANNELS 3 Zrotation Yrotation Xrotation
					JOINT RightToeBase
					{
						OFFSET -0.200000 -0.500000 1.950000
						CHANNELS 3 Zrotation Yrotation Xrotation
						End Site
						{
							OFFSET 0.000000 0.000000 0.000000
						}
					}
				}
			}
		}
	}
	JOINT LowerBack
	{
		OFFSET 0.000000 0.000000 0.000000
		CHANNELS 3 Zrotation Yrotation Xrotation
		JOINT Spine
		{
			OFFSET -0.087000 1.940000 -0.288900
			CHANNELS 3 Zrotation Yrotation Xrotation
			JOINT Spine1
			{
				OFFSET 0.000000 1.950000 0.060000
				CHANNELS 3 Zrotation Yrotation Xrotation
				JOINT Neck
				{
					OFFSET 0.000000 0.000000 0.000000
					CHANNELS 3 Zrotation Yrotation Xrotation
					JOINT Neck1
					{
						OFFSET 0.000000 1.600000 0.340000
						CHANNELS 3 Zrotation Yrotation Xrotation
						JOINT Head
						{
							OFFSET 0.000000 1.667000 -0.240000
							CHANNELS 3 Zrotation Yrotation Xrotation
							End Site
							{
								OFFSET 0.000000 0.000000 0.000000
							}
						}
					}
				}
				JOINT LeftShoulder
				{
					OFFSET 0.000000 0.000000 0.000000
					CHANNELS 3 Zrotation Yrotation Xrotation
					JOINT LeftArm
					{
						OFFSET 2.700000 1.550000 -0.730000
						CHANNELS 3 Zrotation Yrotation Xrotation
						JOINT LeftForeArm
						{
							OFFSET 5.450000 0.000000 0.000000
							CHANNELS 3 Zrotation Yrotation Xrotation
							JOINT LeftHand
							{
								OFFSET 3.450000 0.000000 0.000000
								CHANNELS 3 Zrotation Yrotation Xrotation
								JOINT LeftHandIndex1
								{
									OFFSET 0.750000 0.000000 0.000000
									CHANNELS 3 Zrotation Yrotation Xrotation
									End Site
									{
										OFFSET 0.000000 0.000000 0.000000
									}
								}
							}
						}
					}
				}
				JOINT RightShoulder
				{
					OFFSET 0.000000 0.000000 0.000000
					CHANNELS 3 Zrotation Yrotation Xrotation
					JOINT RightArm
					{
						OFFSET -2.700000 1.550000 -0.730000
						CHANNELS 3 Zrotation Yrotation Xrotation
						JOINT RightForeArm
						{
							OFFSET -5.450000 0.000000 0.000000
							CHANNELS 3 Zrotation Yrotation Xrotation
							JOINT RightHand
							{
								OFFSET -3.450000 0.000000 0.000000
								CHANNELS 3 Zrotation Yrotation Xrotation
								JOINT RightHandIndex1
								{
									OFFSET -0.750000 0.000000 0.000000
									CHANNELS 3 Zrotation Yrotation Xrotation
									End Site
									{
										OFFSET 0.000000 0.000000 0.000000
									}
								}
							}
						}
					}
				}
			}
		}
	}
}
MOTION
Frames: 5
Frame Time: 0.016667
-0.513750 13.146270 -1.850650 -51.180439 -64.884023 -11.938416 -16.002915 11.652197 6.321728 20.243452 -13.993576 -51.134222 49.006584 -24.537283 124.628612 4.158109 20.949535 -1.691174 0.989570 1.071240 1.220830 18.141163 -7.942943 1.685467 -25.321690 9.517933 -27.357114 -8.333522 -8.498670 81.755967 -2.472534 -11.409599 0.043293 0.369930 -0.833560 0.217070 -1.154894 -5.314541 -9.715514 -9.622521 11.598463 67.574551 1.553211 13.417369 27.921297 6.025899 8.207744 -26.589665 11.488931 -5.398711 80.783050 2.849620 3.788260 -24.410680 -25.003779 -39.219342 13.877646 -32.247929 1.595818 -5.917205 22.863700 4.898443 -0.546712 -3.178344 3.066454 0.864140 -0.668280 1.043310 -0.138920 11.016368 44.782816 14.506375 22.972459 -4.851102 -22.449699 -40.650812 9.325108 -7.156038 3.571933 -1.884557 0.290070 -0.001330 -0.489610 -0.178930 
-0.505370 13.032320 -1.792270 -50.944931 -69.690787 -11.133121 -15.835116 11.939019 6.205326 24.026971 -12.651161 -46.421595 44.956008 -17.671924 128.945662 3.531918 18.978667 -1.443632 0.980670 1.003510 1.224160 18.218720 -8.324312 1.703919 -20.449657 7.396350 -31.902907 -16.917977 0.419992 68.216943 -1.935428 -9.232396 0.584406 0.374120 -0.819680 0.280870 -1.356805 -4.889175 -9.486553 -8.054358 10.264830 67.102764 0.254572 12.750114 27.784562 5.355462 7.348042 -27.202235 9.934124 -4.035494 83.185968 3.141740 4.626370 -24.478840 -26.340121 -39.473033 12.715999 -28.893324 1.713704 -8.611976 28.113857 0.956258 -2.399317 -3.312748 3.141692 0.934500 -0.645640 1.022200 -0.198210 14.003009 44.411793 15.004841 26.385653 -0.570310 -17.294548 -33.099850 5.336139 -4.441474 3.303063 -1.706402 0.253360 -0.029990 -0.399040 -0.235380 
-0.480490 12.899820 -1.695110 -49.575066 -72.354818 -12.560141 -15.682123 11.864707 6.525083 27.913511 -13.147544 -41.718772 39.215575 -3.057094 138.836181 2.921878 16.211229 -0.902423 1.017300 1.043050 1.224140 18.330459 -8.441928 1.466950 -17.065431 4.216640 -33.629608 -23.323975 3.641084 52.282902 -1.513097 -7.047752 1.208741 0.387260 -0.848020 0.314530 -1.319840 -4.870326 -9.502875 -5.773641 7.733486 69.545128 0.280146 11.469708 25.913956 4.884522 5.853078 -26.726698 5.353708 -1.774261 85.740374 3.704840 4.518060 -25.733640 -28.320144 -39.481014 11.309843 -25.609118 -0.672272 -12.016349 33.148067 -5.811311 -5.300546 -3.287733 3.278894 0.953620 -0.674550 1.048470 -0.203520 17.628919 43.911592 15.238631 28.942576 0.232588 -13.162990 -26.506222 4.846141 -2.676509 3.126395 -1.544436 0.289080 -0.063590 -0.391070 -0.227330 
-0.460770 12.744170 -1.615350 -42.444498 -75.968081 -20.201069 -15.358679 11.278986 6.979149 30.092410 -13.355391 -37.498922 33.497019 18.748500 146.434086 3.084395 15.970853 -0.747989 0.976580 1.002340 1.143160 18.688588 -8.392476 1.310899 -14.016918 2.210093 -35.202592 -24.874508 3.126037 37.922431 -1.114502 -4.899920 1.938913 0.331880 -0.794190 0.310630 -1.098023 -4.830633 -9.761360 -5.324863 7.011084 73.642431 0.694679 11.308073 21.925186 3.828521 4.242414 -25.844775 0.339354 0.466232 84.940356 5.186940 3.568070 -23.669240 -29.646414 -39.016569 9.972056 -20.468248 -3.376940 -13.806306 33.788285 -12.021968 -7.076112 -3.240760 3.345019 0.886940 -0.668400 1.009580 -0.152130 22.062831 43.258378 15.373476 31.401977 0.372592 -11.288530 -23.664443 3.703805 -1.716970 3.138516 -1.500747 0.318770 -0.087220 -0.406900 -0.163950 
-0.475710 12.559250 -1.590800 -28.454705 -76.536862 -32.559884 -15.119115 10.123894 7.359101 32.578791 -16.013090 -35.872225 26.778552 42.548144 151.347163 4.369344 20.459702 -1.440812 0.913770 0.933360 1.079910 19.082169 -8.101741 1.314661 -13.240267 -0.064089 -40.078862 -22.497563 1.096455 29.251328 -0.854886 -3.580456 2.420819 0.301680 -0.700510 0.270860 -0.615238 -5.352728 -10.276825 -8.092914 8.448546 74.549024 3.420944 10.492468 20.528833 1.976707 4.007911 -25.494806 1.520265 -0.811764 81.709447 6.552520 4.085340 -21.186210 -27.364771 -40.330880 9.396873 -15.970900 -4.896042 -15.967937 35.424430 -16.384174 -8.674479 -3.297739 3.343092 0.838650 -0.617640 0.936840 -0.107050 24.040306 43.357062 15.794729 33.984352 0.022413 -5.629002 -12.371616 -0.661191 0.446467 3.055802 -1.174799 0.269320 -0.055520 -0.411540 -0.145540 
